<?xml version="1.0" standalone="no"?>
<svg xmlns="http://www.w3.org/2000/svg" xmlns:xlink="http://www.w3.org/1999/xlink" width="1093pt" height="346pt" viewBox="0.00 0.00 1093.17 346">
<g id="graph0" class="graph" transform="translate(4,342) scale(1)" data-name="future_custom">

<polygon fill="white" stroke="none" points="-4,4 -4,-342 1089.17,-342 1089.17,4 -4,4"/>
<g id="clust1" class="cluster" data-name="cluster_sys">

<polygon fill="white" stroke="black" points="8,-8 8,-142 1077.17,-142 1077.17,-8 8,-8"/>
<text text-anchor="middle" x="542.58" y="-127.2" font-family="Times,serif" font-size="12.00">Software Systems</text>
</g>
<g id="clust2" class="cluster" data-name="cluster_legend">

<polygon fill="none" stroke="black" points="74.08,-150 74.08,-330 234.98,-330 234.98,-150 74.08,-150"/>
<text text-anchor="middle" x="154.53" y="-317" font-family="Times,serif" font-size="10.00">Responsibility Legend</text>
</g>
<!-- SSS -->
<g id="node1" class="node" pointer-events="visible" data-name="SSS">

<polygon fill="white" stroke="black" points="37.97,-73 37.97,-109 271.08,-109 271.08,-73 37.97,-73"/>
<text text-anchor="middle" x="57.65" y="-86.9" font-family="Times,serif" font-size="14.00">SSS</text>
<polyline fill="none" stroke="black" points="77.33,-73.2 77.33,-109"/>
<text text-anchor="middle" x="111.97" y="-86.9" font-family="Times,serif" font-size="14.00">FA Team</text>
<polyline fill="none" stroke="black" points="146.6,-73.2 146.6,-109"/>
<text text-anchor="start" x="154.6" y="-86.9" font-family="Times,serif" font-size="14.00">FA Calc &amp; Awards</text>
</g>
<!-- TP -->
<g id="node3" class="node" pointer-events="visible" data-name="TP">

<polygon fill="lightblue" stroke="black" points="474.86,-25.4 474.86,-100.6 726.63,-100.6 726.63,-25.4 474.86,-25.4"/>
<text text-anchor="start" x="482.86" y="-67.2" font-family="Times,serif" font-size="14.00">New Tuition</text>
<text text-anchor="middle" x="518.43" y="-50.4" font-family="Times,serif" font-size="14.00">Platform</text>
<polyline fill="none" stroke="black" points="562.01,-25.4 562.01,-100.6"/>
<text text-anchor="start" x="570.01" y="-67.2" font-family="Times,serif" font-size="14.00">Business</text>
<text text-anchor="middle" x="594.9" y="-50.4" font-family="Times,serif" font-size="14.00">Office</text>
<polyline fill="none" stroke="black" points="627.8,-25.4 627.8,-100.6"/>
<text text-anchor="start" x="635.8" y="-84" font-family="Times,serif" font-size="14.00">Billing</text>
<text text-anchor="start" x="635.8" y="-67.2" font-family="Times,serif" font-size="14.00">Payment Plans</text>
<text text-anchor="start" x="635.8" y="-50.4" font-family="Times,serif" font-size="14.00">Collections</text>
<text text-anchor="start" x="635.8" y="-33.6" font-family="Times,serif" font-size="14.00">Small Fees</text>
</g>
<!-- SSS&#45;&gt;TP -->
<g id="edge1" class="edge" data-name="SSS-&gt;TP">

<path fill="none" stroke="green" d="M271.08,-83.72C330.01,-80 402.05,-75.46 463.65,-71.58"/>
<polygon fill="green" stroke="green" points="463.76,-75.08 473.52,-70.96 463.32,-68.09 463.76,-75.08"/>
<text text-anchor="middle" x="383.96" y="-85.2" font-family="Times,serif" font-size="14.00">API FA awards (?)</text>
</g>
<!-- SA -->
<g id="node2" class="node" pointer-events="visible" data-name="SA">

<polygon fill="pink" stroke="black" points="16,-18 16,-54 293.06,-54 293.06,-18 16,-18"/>
<text text-anchor="middle" x="62.89" y="-31.9" font-family="Times,serif" font-size="14.00">SchoolAdmin</text>
<polyline fill="none" stroke="black" points="109.78,-18.2 109.78,-54"/>
<text text-anchor="middle" x="150.84" y="-31.9" font-family="Times,serif" font-size="14.00">Admissions</text>
<polyline fill="none" stroke="black" points="191.9,-18.2 191.9,-54"/>
<text text-anchor="start" x="199.9" y="-31.9" font-family="Times,serif" font-size="14.00">Contracts Only</text>
</g>
<!-- SA&#45;&gt;TP -->
<g id="edge2" class="edge" data-name="SA-&gt;TP">

<path fill="none" stroke="green" d="M304.16,-40.17C352.85,-42.02 407.2,-44.63 456.86,-48.2 459.09,-48.36 461.35,-48.53 463.63,-48.7"/>
<polygon fill="green" stroke="green" points="304.52,-36.68 294.4,-39.8 304.26,-43.67 304.52,-36.68"/>
<polygon fill="green" stroke="green" points="463.34,-52.19 473.59,-49.5 463.9,-45.21 463.34,-52.19"/>
<text text-anchor="middle" x="383.96" y="-52.2" font-family="Times,serif" font-size="14.00">Contracts &amp; Deposits (??)</text>
</g>
<!-- Sage -->
<g id="node4" class="node" pointer-events="visible" data-name="Sage">

<polygon fill="lightblue" stroke="black" points="839.99,-16.2 839.99,-57.8 1069.17,-57.8 1069.17,-16.2 839.99,-16.2"/>
<text text-anchor="middle" x="882.39" y="-32.8" font-family="Times,serif" font-size="14.00">Sage Intacct</text>
<polyline fill="none" stroke="black" points="924.79,-16.2 924.79,-57.8"/>
<text text-anchor="start" x="932.79" y="-41.2" font-family="Times,serif" font-size="14.00">Business</text>
<text text-anchor="middle" x="957.68" y="-24.4" font-family="Times,serif" font-size="14.00">Office</text>
<polyline fill="none" stroke="black" points="990.57,-16.2 990.57,-57.8"/>
<text text-anchor="start" x="998.57" y="-41.2" font-family="Times,serif" font-size="14.00">AR Ledger</text>
<text text-anchor="start" x="998.57" y="-24.4" font-family="Times,serif" font-size="14.00">Audit Trail</text>
</g>
<!-- TP&#45;&gt;Sage -->
<g id="edge3" class="edge" data-name="TP-&gt;Sage">

<path fill="none" stroke="green" d="M737.87,-50.72C740.14,-50.55 742.39,-50.37 744.63,-50.2 771.86,-48.12 801.11,-46.12 828.85,-44.34"/>
<polygon fill="green" stroke="green" points="737.61,-47.23 727.92,-51.52 738.17,-54.21 737.61,-47.23"/>
<polygon fill="green" stroke="green" points="828.95,-47.84 838.71,-43.71 828.51,-40.86 828.95,-47.84"/>
<text text-anchor="middle" x="783.31" y="-54.2" font-family="Times,serif" font-size="14.00">Real-time GL</text>
</g>
<!-- Teach -->
<g id="node5" class="node" pointer-events="visible" data-name="Teach">

<ellipse fill="none" stroke="black" cx="954.58" cy="-94" rx="81.06" ry="18"/>
<text text-anchor="middle" x="954.58" y="-89.8" font-family="Times,serif" font-size="14.00">Teachers/Coaches</text>
</g>
<!-- TP&#45;&gt;Teach -->
<g id="edge4" class="edge" data-name="TP-&gt;Teach">

<path fill="none" stroke="green" d="M726.28,-73.97C772.91,-78.08 824.82,-82.65 867.24,-86.39"/>
<polygon fill="green" stroke="green" points="866.88,-89.87 877.15,-87.27 867.5,-82.9 866.88,-89.87"/>
<text text-anchor="middle" x="783.31" y="-86.2" font-family="Times,serif" font-size="14.00">Fee status (?)</text>
</g>
<!-- rBO -->
<g id="node6" class="node" pointer-events="visible" data-name="l1" data-comment="rBO">

<ellipse fill="lightblue" stroke="black" cx="154.53" cy="-284" rx="72.41" ry="18"/>
<text text-anchor="middle" x="154.53" y="-279.8" font-family="Times,serif" font-size="14.00">Business Office</text>
</g>
<!-- rADM -->
<g id="node7" class="node" pointer-events="visible" data-name="l2" data-comment="rADM">

<ellipse fill="pink" stroke="black" cx="154.53" cy="-230" rx="56.8" ry="18"/>
<text text-anchor="middle" x="154.53" y="-225.8" font-family="Times,serif" font-size="14.00">Admissions</text>
</g>
<!-- rIT -->
<g id="node8" class="node" pointer-events="visible" data-name="l3" data-comment="rIT">

<ellipse fill="lightgreen" stroke="black" cx="154.53" cy="-176" rx="27" ry="18"/>
<text text-anchor="middle" x="154.53" y="-171.8" font-family="Times,serif" font-size="14.00">IT</text>
</g>
</g>
</svg>